<svg xmlns="http://www.w3.org/2000/svg" viewBox="0 0 240 240" fill="none" role="img" aria-label="ROSE VIP">
  <g transform="translate(120 78)" stroke="#F39200" stroke-width="3.2" fill="none" stroke-linecap="round" stroke-linejoin="round">
    <circle r="52"/>
    <path d="M0-34 C12-28 22-16 26-2 C14-8 4-18 0-34Z"/>
    <path d="M0-34 C12-28 22-16 26-2 C14-8 4-18 0-34Z" transform="rotate(45)"/>
    <path d="M0-34 C12-28 22-16 26-2 C14-8 4-18 0-34Z" transform="rotate(90)"/>
    <path d="M0-34 C12-28 22-16 26-2 C14-8 4-18 0-34Z" transform="rotate(135)"/>
    <path d="M0-34 C12-28 22-16 26-2 C14-8 4-18 0-34Z" transform="rotate(180)"/>
    <path d="M0-34 C12-28 22-16 26-2 C14-8 4-18 0-34Z" transform="rotate(225)"/>
    <path d="M0-34 C12-28 22-16 26-2 C14-8 4-18 0-34Z" transform="rotate(270)"/>
    <path d="M0-34 C12-28 22-16 26-2 C14-8 4-18 0-34Z" transform="rotate(315)"/>
  </g>
  <text x="120" y="168" text-anchor="middle" fill="#F39200" font-family="Arial Black, Arial, sans-serif" font-size="28" font-weight="800" letter-spacing="1">ROSE - VIP</text>
  <text x="120" y="198" text-anchor="middle" fill="#FFFFFF" font-family="Arial, sans-serif" font-size="14" font-weight="400" letter-spacing="8">FLORIST</text>
</svg>
